<svg width="36" height="36" viewBox="0 0 36 36" fill="none" xmlns="http://www.w3.org/2000/svg">
<rect x="0.5" y="0.5" width="35" height="35" rx="3.5" stroke="#475467"/>
<g clip-path="url(#clip0_20_3463)">
<path d="M24.3553 14.6004C24.3655 14.7425 24.3655 14.8847 24.3655 15.0268C24.3655 19.3618 21.066 24.3567 15.0355 24.3567C13.1777 24.3567 11.4518 23.8186 10 22.8847C10.264 22.9151 10.5178 22.9253 10.7919 22.9253C12.3248 22.9253 13.736 22.4075 14.8629 21.5243C13.4213 21.4938 12.2132 20.5496 11.7969 19.2501C12 19.2806 12.203 19.3009 12.4162 19.3009C12.7107 19.3009 13.0051 19.2603 13.2792 19.1892C11.7767 18.8846 10.6497 17.5648 10.6497 15.9709V15.9303C11.0863 16.174 11.5939 16.3263 12.1319 16.3466C11.2487 15.7577 10.67 14.7527 10.67 13.6156C10.67 13.0065 10.8324 12.4481 11.1167 11.9608C12.7309 13.9506 15.1573 15.2501 17.8781 15.3923C17.8274 15.1486 17.7969 14.8948 17.7969 14.641C17.7969 12.8339 19.2588 11.3618 21.0761 11.3618C22.0203 11.3618 22.873 11.7578 23.472 12.3973C24.2131 12.2552 24.9238 11.9811 25.5533 11.6055C25.3096 12.3669 24.7918 13.0065 24.1116 13.4126C24.7715 13.3415 25.4111 13.1588 25.9999 12.905C25.5533 13.5547 24.9949 14.1333 24.3553 14.6004Z" fill="#475467"/>
</g>
<defs>
<clipPath id="clip0_20_3463">
<rect width="16" height="16" fill="white" transform="translate(10 9.85938)"/>
</clipPath>
</defs>
</svg>
