<svg width="36" height="36" viewBox="0 0 36 36" fill="none" xmlns="http://www.w3.org/2000/svg">
<rect x="0.5" y="0.5" width="35" height="35" rx="3.5" stroke="#475467"/>
<g clip-path="url(#clip0_20_3467)">
<path d="M24 10.8594H11.9969C11.4469 10.8594 11 11.3125 11 11.8688V23.85C11 24.4062 11.4469 24.8594 11.9969 24.8594H24C24.55 24.8594 25 24.4062 25 23.85V11.8688C25 11.3125 24.55 10.8594 24 10.8594ZM15.2312 22.8594H13.1562V16.1781H15.2344V22.8594H15.2312ZM14.1937 15.2656C13.5281 15.2656 12.9906 14.725 12.9906 14.0625C12.9906 13.4 13.5281 12.8594 14.1937 12.8594C14.8562 12.8594 15.3969 13.4 15.3969 14.0625C15.3969 14.7281 14.8594 15.2656 14.1937 15.2656ZM23.0094 22.8594H20.9344V19.6094C20.9344 18.8344 20.9187 17.8375 19.8562 17.8375C18.775 17.8375 18.6094 18.6813 18.6094 19.5531V22.8594H16.5344V16.1781H18.525V17.0906H18.5531C18.8312 16.5656 19.5094 16.0125 20.5188 16.0125C22.6187 16.0125 23.0094 17.3969 23.0094 19.1969V22.8594Z" fill="#475467"/>
</g>
<defs>
<clipPath id="clip0_20_3467">
<rect width="16" height="16" fill="white" transform="translate(10 9.85938)"/>
</clipPath>
</defs>
</svg>
