<svg width="36" height="36" viewBox="0 0 36 36" fill="none" xmlns="http://www.w3.org/2000/svg">
<rect x="0.5" y="0.5" width="35" height="35" rx="3.5" stroke="#475467"/>
<g clip-path="url(#clip0_20_3471)">
<path d="M18.0031 14.2657C16.0156 14.2657 14.4125 15.8688 14.4125 17.8563C14.4125 19.8438 16.0156 21.447 18.0031 21.447C19.9906 21.447 21.5938 19.8438 21.5938 17.8563C21.5938 15.8688 19.9906 14.2657 18.0031 14.2657ZM18.0031 20.1907C16.7188 20.1907 15.6688 19.1438 15.6688 17.8563C15.6688 16.5688 16.7156 15.522 18.0031 15.522C19.2906 15.522 20.3375 16.5688 20.3375 17.8563C20.3375 19.1438 19.2875 20.1907 18.0031 20.1907ZM22.5781 14.1188C22.5781 14.5845 22.2031 14.9563 21.7407 14.9563C21.275 14.9563 20.9031 14.5813 20.9031 14.1188C20.9031 13.6563 21.2782 13.2813 21.7407 13.2813C22.2031 13.2813 22.5781 13.6563 22.5781 14.1188ZM24.9563 14.9688C24.9031 13.847 24.6469 12.8532 23.825 12.0345C23.0063 11.2157 22.0125 10.9595 20.8906 10.9032C19.7344 10.8376 16.2688 10.8376 15.1125 10.9032C13.9938 10.9563 13 11.2126 12.1781 12.0313C11.3563 12.8501 11.1031 13.8438 11.0469 14.9657C10.9813 16.122 10.9813 19.5876 11.0469 20.7438C11.1 21.8657 11.3563 22.8595 12.1781 23.6782C13 24.497 13.9906 24.7532 15.1125 24.8095C16.2688 24.8751 19.7344 24.8751 20.8906 24.8095C22.0125 24.7563 23.0063 24.5001 23.825 23.6782C24.6438 22.8595 24.9 21.8657 24.9563 20.7438C25.0219 19.5876 25.0219 16.1251 24.9563 14.9688ZM23.4625 21.9845C23.2188 22.597 22.7469 23.0688 22.1313 23.3157C21.2094 23.6813 19.0219 23.597 18.0031 23.597C16.9844 23.597 14.7938 23.6782 13.875 23.3157C13.2625 23.072 12.7906 22.6001 12.5438 21.9845C12.1781 21.0626 12.2625 18.8751 12.2625 17.8563C12.2625 16.8376 12.1813 14.647 12.5438 13.7282C12.7875 13.1157 13.2594 12.6438 13.875 12.397C14.7969 12.0313 16.9844 12.1157 18.0031 12.1157C19.0219 12.1157 21.2125 12.0345 22.1313 12.397C22.7438 12.6407 23.2156 13.1126 23.4625 13.7282C23.8281 14.6501 23.7438 16.8376 23.7438 17.8563C23.7438 18.8751 23.8281 21.0657 23.4625 21.9845Z" fill="#475467"/>
</g>
<defs>
<clipPath id="clip0_20_3471">
<rect width="16" height="16" fill="white" transform="translate(10 9.85938)"/>
</clipPath>
</defs>
</svg>
