<svg width="36" height="36" viewBox="0 0 36 36" fill="none" xmlns="http://www.w3.org/2000/svg">
<rect x="0.5" y="0.5" width="35" height="35" rx="3.5" stroke="#475467"/>
<g clip-path="url(#clip0_20_3459)">
<path d="M25.75 17.8594C25.75 13.5781 22.2812 10.1094 18 10.1094C13.7188 10.1094 10.25 13.5781 10.25 17.8594C10.25 21.7275 13.0841 24.9338 16.7891 25.5156V20.0997H14.8203V17.8594H16.7891V16.1519C16.7891 14.2097 17.9453 13.1369 19.7163 13.1369C20.5644 13.1369 21.4513 13.2881 21.4513 13.2881V15.1944H20.4738C19.5113 15.1944 19.2109 15.7919 19.2109 16.4047V17.8594H21.3603L21.0166 20.0997H19.2109V25.5156C22.9159 24.9338 25.75 21.7275 25.75 17.8594Z" fill="#475467"/>
</g>
<defs>
<clipPath id="clip0_20_3459">
<rect width="16" height="16" fill="white" transform="translate(10 9.85938)"/>
</clipPath>
</defs>
</svg>
