<svg width="48" height="48" viewBox="0 0 48 48" fill="none" xmlns="http://www.w3.org/2000/svg">
<rect x="0.5" y="0.5" width="47" height="47" rx="11.5" stroke="#D0D5DD"/>
<path d="M30.73 33.75H24.27C23.85 33.75 23.46 33.54 23.23 33.19L20.31 28.81L18.05 32.68C17.83 33.06 17.44 33.29 17.01 33.3C16.59 33.34 16.17 33.11 15.93 32.74L12.56 27.68C12.28 27.26 12.28 26.71 12.56 26.29L16.23 20.79C16.46 20.44 16.85 20.23 17.27 20.23H22.2L19.8 16.11C19.58 15.72 19.57 15.24 19.8 14.86C20.02 14.47 20.44 14.23 20.88 14.23H27.72C28.16 14.23 28.58 14.47 28.8 14.85L35.5 26.33C35.74 26.75 35.73 27.25 35.46 27.65L31.78 33.17C31.54 33.54 31.15 33.75 30.73 33.75ZM24.4 32.25H30.6L34.12 26.97L27.57 15.75H21.31L24.81 21.75L27.21 25.87C27.43 26.25 27.44 26.73 27.21 27.12C26.99 27.51 26.57 27.75 26.13 27.75H21.4L24.4 32.25ZM13.9 27L16.96 31.58L19.2 27.75L22.7 21.75H17.41L13.9 27ZM21.81 26.25H25.7L23.76 22.92L21.81 26.25Z" fill="#15B79E"/>
</svg>
