<svg width="48" height="48" viewBox="0 0 48 48" fill="none" xmlns="http://www.w3.org/2000/svg">
<rect x="0.5" y="0.5" width="47" height="47" rx="11.5" stroke="#D0D5DD"/>
<path d="M21.99 34.75C21.79 34.75 21.63 34.71 21.51 34.66C21.11 34.51 20.43 34.02 20.43 32.47V26.02H18.09C16.75 26.02 16.27 25.39 16.1 25.02C15.93 24.64 15.78 23.87 16.66 22.86L24.23 14.26C25.25 13.1 26.08 13.18 26.48 13.33C26.88 13.48 27.56 13.97 27.56 15.52V21.97H29.9C31.24 21.97 31.72 22.6 31.89 22.97C32.06 23.35 32.21 24.12 31.33 25.13L23.76 33.73C23.05 34.54 22.43 34.75 21.99 34.75ZM25.93 14.74C25.9 14.78 25.69 14.88 25.36 15.26L17.79 23.86C17.51 24.18 17.47 24.38 17.47 24.42C17.49 24.43 17.67 24.53 18.09 24.53H21.18C21.59 24.53 21.93 24.87 21.93 25.28V32.48C21.93 32.98 22.02 33.2 22.06 33.26C22.09 33.22 22.3 33.12 22.63 32.74L30.2 24.14C30.48 23.82 30.52 23.62 30.52 23.58C30.5 23.57 30.32 23.47 29.9 23.47H26.81C26.4 23.47 26.06 23.13 26.06 22.72V15.52C26.07 15.02 25.97 14.81 25.93 14.74Z" fill="#15B79E"/>
</svg>
